# xmcd
#
# Track frame offsets: 
#        182
#        23692
#        57945
#        85340
#        109400
#        143845
#        172155
#        199472
#        226090
#        250592
#        277025
#        301320
#
# Disc length: 4360 seconds
#
# Revision: 16
# Processed by: cddbd v1.5.2PL0 Copyright (c) Steve Scherf et al.
# Submitted via: ExactAudioCopy v0.99pb3
#
DISCID=a711060c
DTITLE=Al Jarreau - Tenderness
DYEAR=1994
DGENRE=Jazz
TTITLE0=Mas Que Nada
TTITLE1=Try A Little Tenderness
TTITLE2=Your Song
TTITLE3=My Favorite Things (Feat. Kathleen Battle)
TTITLE4=She's Leaving Home
TTITLE5=Summertime
TTITLE6=We Got By (Feat. David Sanborn)
TTITLE7=Save Your Love For Me
TTITLE8=You Don't See Me
TTITLE9=Wait For The Magic
TTITLE10=Dinosaur
TTITLE11=Go Away Little Girl
EXTD=YEAR: 1994
EXTT0=
EXTT1=
EXTT2=
EXTT3=
EXTT4=
EXTT5=
EXTT6=
EXTT7=
EXTT8=
EXTT9=
EXTT10=
EXTT11=
PLAYORDER=
